<svg width="189" height="25" viewBox="0 0 189 25" fill="none" xmlns="http://www.w3.org/2000/svg">
<g clip-path="url(#clip0_14_8104)">
<path d="M0.430034 6.58858C0.712628 5.0441 1.18567 3.78155 1.84915 2.80705C2.50648 1.83256 3.3727 1.12161 4.45393 0.668074C5.52901 0.220665 6.84983 -0.00610352 8.41024 -0.00610352C9.97065 -0.00610352 11.2853 0.220665 12.3666 0.668074C13.4416 1.11548 14.314 1.83256 14.9713 2.80705C15.6287 3.78155 16.1017 5.0441 16.3904 6.58858C16.673 8.13305 16.8205 10.0024 16.8205 12.1965C16.8205 14.3906 16.6792 16.2538 16.3904 17.8044C16.1079 19.3489 15.6348 20.6115 14.9713 21.586C14.314 22.5604 13.4416 23.2591 12.3666 23.6759C11.2915 24.0927 9.97065 24.3011 8.41024 24.3011C6.84983 24.3011 5.52901 24.0927 4.45393 23.6759C3.37884 23.2591 2.50648 22.5666 1.84915 21.586C1.19181 20.6115 0.718771 19.3489 0.430034 17.8044C0.14744 16.26 0 14.3906 0 12.1965C0 10.0024 0.141297 8.13918 0.430034 6.58858ZM6.39522 16.119C6.43823 17.1609 6.53038 17.9883 6.67782 18.6012C6.81911 19.2141 7.02799 19.6431 7.30444 19.8821C7.58089 20.1211 7.94949 20.2437 8.41024 20.2437C8.87099 20.2437 9.23959 20.1211 9.51604 19.8821C9.79249 19.6431 10.0014 19.2141 10.1427 18.6012C10.284 17.9883 10.3761 17.1609 10.4253 16.119C10.4683 15.0771 10.4928 13.7716 10.4928 12.1904C10.4928 10.6091 10.4683 9.30367 10.4253 8.26176C10.3823 7.21985 10.2901 6.39245 10.1427 5.77956C10.0014 5.16668 9.79249 4.73765 9.51604 4.49863C9.23959 4.2596 8.87099 4.13702 8.41024 4.13702C7.94949 4.13702 7.58089 4.2596 7.30444 4.49863C7.02799 4.73765 6.81911 5.16668 6.67782 5.77956C6.53652 6.39245 6.44437 7.21985 6.39522 8.26176C6.35222 9.30367 6.32765 10.6091 6.32765 12.1904C6.32765 13.7716 6.35222 15.0771 6.39522 16.119Z" fill="white"/>
<path d="M27.774 0.459717C28.9412 0.459717 29.9303 0.612939 30.7535 0.919383C31.5767 1.22583 32.2463 1.66098 32.7624 2.21871C33.2784 2.77643 33.6531 3.43835 33.8804 4.20446C34.1139 4.97057 34.2245 5.8041 34.2245 6.70505C34.2245 8.28017 33.905 9.55498 33.2661 10.5172C32.6272 11.4794 31.6074 12.074 30.2006 12.2946V12.362C31.6688 12.4907 32.6825 13.0117 33.2293 13.9065C33.776 14.8074 34.0525 16.0455 34.0525 17.6206V20.5808C34.0525 20.9118 34.0647 21.2244 34.0832 21.5186C34.1078 21.8127 34.1385 22.0824 34.1815 22.3214C34.2245 22.5605 34.2798 22.7505 34.3473 22.8792C34.4333 23.0079 34.5255 23.1366 34.6115 23.2592C34.6975 23.3817 34.845 23.4921 35.0415 23.6024V23.9333H28.5173C28.3637 23.6269 28.247 23.2653 28.1733 22.8485C28.0934 22.4318 28.0443 22.015 28.0074 21.5982C27.9767 21.1815 27.9521 20.7831 27.9398 20.397C27.9275 20.0109 27.9214 19.7044 27.9214 19.4593V17.8841C27.9214 17.2283 27.8907 16.6767 27.8231 16.2416C27.7555 15.8064 27.645 15.4571 27.4791 15.2058C27.3132 14.9545 27.1043 14.7768 26.8525 14.6787C26.6006 14.5807 26.2873 14.5316 25.9125 14.5316H24.2968V23.9333H18.1658V0.459717H27.7555H27.774ZM25.5316 10.3885C26.4101 10.3885 27.0613 10.1311 27.4791 9.61627C27.8968 9.10144 28.1057 8.42727 28.1057 7.59374C28.1057 6.60699 27.903 5.90829 27.4975 5.49153C27.0921 5.07477 26.4286 4.86638 25.5071 4.86638H24.3214V10.3885H25.5378H25.5316Z" fill="white"/>
<path d="M42.174 0.459717V23.9333H36.043V0.459717H42.174Z" fill="white"/>
<path d="M59.8361 11.179V23.9332H55.6832L55.5542 21.8617H55.4866C55.29 22.3642 55.0074 22.781 54.6449 23.112C54.2825 23.4429 53.877 23.6881 53.4286 23.8536C52.9801 24.019 52.4948 24.1355 51.9787 24.1968C51.4627 24.2642 50.9405 24.2948 50.4122 24.2948C48.8518 24.2948 47.6231 24.0374 46.72 23.5226C45.817 23.0078 45.1412 22.2355 44.6743 21.2059C44.2135 20.1762 43.9187 18.9076 43.8019 17.3937C43.6791 15.8799 43.6238 14.1515 43.6238 12.2026C43.6238 10.2536 43.7405 8.48845 43.9678 6.97462C44.2013 5.46078 44.6374 4.19211 45.2886 3.16245C45.9337 2.1328 46.8306 1.3483 47.9733 0.815091C49.1159 0.275749 50.5842 0.012207 52.3903 0.012207C53.4654 0.012207 54.4606 0.153171 55.3699 0.441229C56.2791 0.729286 57.0654 1.18895 57.7228 1.82023C58.3801 2.45763 58.8961 3.27277 59.2709 4.27178C59.6456 5.27079 59.8299 6.47818 59.8299 7.90621H53.9016C53.9016 6.65592 53.791 5.74884 53.5699 5.17886C53.3487 4.49855 52.8757 4.16146 52.1507 4.16146C51.647 4.16146 51.2415 4.28404 50.9466 4.52307C50.6518 4.76209 50.4306 5.19111 50.2893 5.804C50.148 6.41689 50.0559 7.24429 50.0067 8.2862C49.9637 9.32811 49.9391 10.6336 49.9391 12.2148C49.9391 13.7961 49.9637 15.1015 50.0067 16.1434C50.0497 17.1853 50.1419 18.0127 50.2893 18.6256C50.4306 19.2385 50.6395 19.6675 50.9159 19.9066C51.1924 20.1456 51.561 20.2682 52.0217 20.2682C52.3535 20.2682 52.6422 20.2007 52.8941 20.072C53.146 19.9433 53.361 19.6921 53.5391 19.3304C53.7173 18.9688 53.8524 18.4663 53.9507 17.8166C54.049 17.1731 54.0982 16.3457 54.0982 15.3344H51.9234V11.1913H59.8299L59.8361 11.179Z" fill="white"/>
<path d="M67.4169 0.459717V23.9333H61.2859V0.459717H67.4169Z" fill="white"/>
<path d="M76.1159 0.459717L80.0723 14.9239H80.1398V0.459717H85.8716V23.9333H79.1508L75.0654 9.43853H74.9979V23.9333H69.2661V0.459717H76.1221H76.1159Z" fill="white"/>
<path d="M97.1016 6.67436C97.1016 5.97566 96.9603 5.37503 96.6716 4.88472C96.389 4.39441 95.9467 4.14313 95.3508 4.14313C94.6935 4.14313 94.2081 4.35764 93.901 4.78666C93.5938 5.21568 93.4402 5.6876 93.4402 6.21469C93.4402 6.9808 93.6859 7.58756 94.1836 8.0411C94.675 8.4885 95.2955 8.88075 96.045 9.20558C96.7883 9.53654 97.5931 9.8675 98.4532 10.2107C99.3071 10.5539 100.112 10.9952 100.861 11.5407C101.611 12.0862 102.231 12.8032 102.723 13.6919C103.214 14.5806 103.466 15.7328 103.466 17.1609C103.466 19.6615 102.754 21.4756 101.322 22.6033C99.8969 23.731 97.8327 24.2949 95.1296 24.2949C93.858 24.2949 92.7276 24.1907 91.7508 23.9823C90.774 23.7739 89.9508 23.4123 89.2812 22.8975C88.6115 22.3827 88.1016 21.7085 87.7515 20.875C87.4013 20.0415 87.2231 19.0118 87.2231 17.786V16.9648H93.1515V17.5225C93.1515 18.5337 93.3358 19.2386 93.7105 19.6431C94.0853 20.0476 94.5644 20.2498 95.1603 20.2498C95.7993 20.2498 96.2846 20.0292 96.6286 19.594C96.9665 19.1589 97.1385 18.6195 97.1385 17.9821C97.1385 17.216 96.9051 16.6093 96.432 16.1557C95.959 15.7083 95.3692 15.3222 94.6505 15.0035C93.9378 14.6848 93.1638 14.36 92.3283 14.0351C91.4928 13.7042 90.7187 13.2813 90.0061 12.7542C89.2935 12.2271 88.6976 11.5407 88.2245 10.6826C87.7515 9.8246 87.518 8.70914 87.518 7.33015C87.518 4.93988 88.1569 3.1196 89.4286 1.87544C90.7003 0.625146 92.6354 0 95.2279 0C97.8204 0 99.8477 0.576115 101.046 1.72835C102.244 2.88058 102.84 4.71311 102.84 7.23208H97.1078V6.67436H97.1016Z" fill="white"/>
<path d="M113.812 4.86641C113.547 4.38223 113.117 4.1432 112.528 4.1432C112.067 4.1432 111.698 4.26578 111.422 4.50481C111.145 4.74383 110.936 5.17285 110.795 5.78574C110.654 6.39863 110.562 7.22603 110.513 8.26794C110.47 9.30985 110.445 10.6153 110.445 12.1966C110.445 13.7778 110.47 15.0833 110.513 16.1252C110.556 17.1671 110.648 17.9945 110.795 18.6074C110.936 19.2203 111.145 19.6493 111.422 19.8883C111.698 20.1273 112.067 20.2499 112.528 20.2499C112.902 20.2499 113.21 20.158 113.449 19.968C113.689 19.7841 113.879 19.4715 114.008 19.0303C114.137 18.5951 114.235 18.0067 114.291 17.2713C114.346 16.5358 114.371 15.6103 114.371 14.4949H120.299V16.2355C120.299 17.878 120.078 19.2264 119.642 20.2806C119.199 21.3347 118.622 22.1621 117.897 22.7628C117.172 23.3634 116.343 23.774 115.409 23.9763C114.475 24.1785 113.517 24.2888 112.528 24.2888C110.814 24.2888 109.407 24.0805 108.307 23.6637C107.207 23.2469 106.354 22.5544 105.739 21.5737C105.125 20.5993 104.701 19.3367 104.474 17.7922C104.24 16.2477 104.13 14.3784 104.13 12.1843C104.13 9.99016 104.265 8.05343 104.541 6.49669C104.818 4.93996 105.285 3.68354 105.942 2.71517C106.599 1.75294 107.465 1.05424 108.547 0.625222C109.622 0.1962 110.955 -0.0183105 112.534 -0.0183105C113.916 -0.0183105 115.096 0.159427 116.06 0.508774C117.025 0.85812 117.811 1.36069 118.413 2.00422C119.015 2.65388 119.457 3.42612 119.734 4.33933C120.01 5.2464 120.145 6.27605 120.145 7.4099V8.88696H114.217V7.56925C114.217 6.23315 114.088 5.31995 113.824 4.8419L113.812 4.86641Z" fill="white"/>
<path d="M127.812 0.459717V9.0708H131.572V0.459717H137.703V23.9333H131.572V14.2681H127.812V23.9333H121.681V0.459717H127.812Z" fill="white"/>
<path d="M139.509 6.58858C139.792 5.0441 140.265 3.78155 140.928 2.80705C141.586 1.83256 142.452 1.12161 143.533 0.668074C144.608 0.220665 145.929 -0.00610352 147.489 -0.00610352C149.05 -0.00610352 150.364 0.220665 151.446 0.668074C152.521 1.11548 153.393 1.83256 154.05 2.80705C154.708 3.78155 155.181 5.0441 155.47 6.58858C155.752 8.13305 155.9 10.0024 155.9 12.1965C155.9 14.3906 155.758 16.2538 155.47 17.8044C155.187 19.3489 154.714 20.6115 154.05 21.586C153.393 22.5604 152.521 23.2591 151.446 23.6759C150.371 24.0927 149.05 24.3011 147.489 24.3011C145.929 24.3011 144.608 24.0927 143.533 23.6759C142.458 23.2591 141.586 22.5666 140.928 21.586C140.271 20.6115 139.798 19.3489 139.509 17.8044C139.227 16.26 139.079 14.3906 139.079 12.1965C139.079 10.0024 139.22 8.13918 139.509 6.58858ZM145.474 16.119C145.517 17.1609 145.609 17.9883 145.757 18.6012C145.898 19.2141 146.107 19.6431 146.384 19.8821C146.66 20.1211 147.029 20.2437 147.489 20.2437C147.95 20.2437 148.319 20.1211 148.595 19.8821C148.872 19.6431 149.08 19.2141 149.222 18.6012C149.363 17.9883 149.455 17.1609 149.504 16.119C149.547 15.0771 149.572 13.7716 149.572 12.1904C149.572 10.6091 149.547 9.30367 149.504 8.26176C149.461 7.21985 149.369 6.39245 149.222 5.77956C149.08 5.16668 148.872 4.73765 148.595 4.49863C148.319 4.2596 147.95 4.13702 147.489 4.13702C147.029 4.13702 146.66 4.2596 146.384 4.49863C146.107 4.73765 145.898 5.16668 145.757 5.77956C145.616 6.39245 145.523 7.21985 145.474 8.26176C145.431 9.30367 145.407 10.6091 145.407 12.1904C145.407 13.7716 145.431 15.0771 145.474 16.119Z" fill="white"/>
<path d="M163.401 0.459717V18.9322H170.945V23.9272H157.27V0.459717H163.401Z" fill="white"/>
<path d="M183.268 0.459717L189 23.9333H182.476L181.849 19.827H176.971L176.345 23.9333H169.919L175.558 0.459717H183.268ZM179.379 5.25863L177.696 15.2181H181.124L179.441 5.25863H179.373H179.379Z" fill="white"/>
</g>
<defs>
<clipPath id="clip0_14_8104">
<rect width="189" height="24.2949" fill="white"/>
</clipPath>
</defs>
</svg>
